<svg width="36" height="43" viewBox="0 0 36 43" fill="none" xmlns="http://www.w3.org/2000/svg">
<path d="M30 5.07352H28V3.00896C28 2.4614 27.7893 1.93627 27.4142 1.54909C27.0391 1.16191 26.5304 0.944397 26 0.944397C25.4696 0.944397 24.9609 1.16191 24.5858 1.54909C24.2107 1.93627 24 2.4614 24 3.00896V5.07352H12V3.00896C12 2.4614 11.7893 1.93627 11.4142 1.54909C11.0391 1.16191 10.5304 0.944397 10 0.944397C9.46957 0.944397 8.96086 1.16191 8.58579 1.54909C8.21071 1.93627 8 2.4614 8 3.00896V5.07352H6C4.4087 5.07352 2.88258 5.72607 1.75736 6.88761C0.632141 8.04915 0 9.62453 0 11.2672V36.0419C0 37.6846 0.632141 39.26 1.75736 40.4215C2.88258 41.5831 4.4087 42.2356 6 42.2356H30C31.5913 42.2356 33.1174 41.5831 34.2426 40.4215C35.3679 39.26 36 37.6846 36 36.0419V11.2672C36 9.62453 35.3679 8.04915 34.2426 6.88761C33.1174 5.72607 31.5913 5.07352 30 5.07352ZM6 9.20264H8V11.2672C8 11.8148 8.21071 12.3399 8.58579 12.7271C8.96086 13.1142 9.46957 13.3318 10 13.3318C10.5304 13.3318 11.0391 13.1142 11.4142 12.7271C11.7893 12.3399 12 11.8148 12 11.2672V9.20264H24V11.2672C24 11.8148 24.2107 12.3399 24.5858 12.7271C24.9609 13.1142 25.4696 13.3318 26 13.3318C26.5304 13.3318 27.0391 13.1142 27.4142 12.7271C27.7893 12.3399 28 11.8148 28 11.2672V9.20264H30C30.5304 9.20264 31.0391 9.42016 31.4142 9.80734C31.7893 10.1945 32 10.7196 32 11.2672V19.5254H4V11.2672C4 10.7196 4.21071 10.1945 4.58579 9.80734C4.96086 9.42016 5.46957 9.20264 6 9.20264ZM30 38.1065H6C5.46957 38.1065 4.96086 37.889 4.58579 37.5018C4.21071 37.1146 4 36.5895 4 36.0419V23.6546H32V36.0419C32 36.5895 31.7893 37.1146 31.4142 37.5018C31.0391 37.889 30.5304 38.1065 30 38.1065Z" fill="white"/>
</svg>
