<svg width="45" height="47" viewBox="0 0 45 47" fill="none" xmlns="http://www.w3.org/2000/svg">
<path d="M22.7018 0.607208C27.094 0.607208 31.3876 1.95171 35.0397 4.47068C38.6917 6.98965 41.5381 10.57 43.2189 14.7589C44.8998 18.9478 45.3396 23.5571 44.4827 28.004C43.6258 32.4509 41.5107 36.5357 38.4049 39.7417C35.2991 42.9478 31.3421 45.1311 27.0343 46.0157C22.7264 46.9002 18.2612 46.4462 14.2033 44.7111C10.1454 42.976 6.67704 40.0377 4.23684 36.2678C1.79664 32.4979 0.494183 28.0657 0.494183 23.5317C0.494183 20.5212 1.0686 17.5402 2.18463 14.7589C3.30067 11.9775 4.93647 9.45036 6.99864 7.32163C9.0608 5.1929 11.5089 3.50429 14.2033 2.35223C16.8977 1.20017 19.7854 0.607208 22.7018 0.607208V0.607208ZM22.7018 41.8713C26.2156 41.8713 29.6505 40.7957 32.5721 38.7805C35.4937 36.7653 37.7708 33.9011 39.1155 30.5499C40.4602 27.1988 40.812 23.5113 40.1265 19.9538C39.441 16.3963 37.7489 13.1285 35.2643 10.5636C32.7797 7.9988 29.6141 6.25213 26.1678 5.54449C22.7215 4.83686 19.1493 5.20004 15.903 6.58812C12.6567 7.9762 9.88199 10.3268 7.92983 13.3428C5.97767 16.3587 4.9357 19.9045 4.9357 23.5317C4.9357 28.3956 6.80748 33.0604 10.1393 36.4997C13.4711 39.9391 17.9899 41.8713 22.7018 41.8713V41.8713Z" fill="white"/>
<path d="M13.8187 21.2392H20.481V14.3619C20.481 13.7539 20.715 13.1708 21.1314 12.7409C21.5479 12.311 22.1128 12.0695 22.7018 12.0695C23.2907 12.0695 23.8556 12.311 24.2721 12.7409C24.6885 13.1708 24.9225 13.7539 24.9225 14.3619V23.5317C24.9225 24.1397 24.6885 24.7228 24.2721 25.1527C23.8556 25.5826 23.2907 25.8241 22.7018 25.8241H13.8187C13.2297 25.8241 12.6649 25.5826 12.2484 25.1527C11.8319 24.7228 11.598 24.1397 11.598 23.5317C11.598 22.9237 11.8319 22.3406 12.2484 21.9107C12.6649 21.4808 13.2297 21.2392 13.8187 21.2392Z" fill="white"/>
</svg>
