<?xml version="1.0" encoding="utf-8"?>
<!-- Generator: Adobe Illustrator 26.2.1, SVG Export Plug-In . SVG Version: 6.00 Build 0)  -->
<svg version="1.1" id="Layer_1" xmlns="http://www.w3.org/2000/svg" xmlns:xlink="http://www.w3.org/1999/xlink" x="0px" y="0px"
	 viewBox="0 0 680 680" style="enable-background:new 0 0 680 680;" xml:space="preserve">
<style type="text/css">
	.st0{fill:#5C0527;}
</style>
<g>
	<g>
		<path class="st0" d="M374.6,76.6v43.9l0,0v101.3c0,23.3-1,39.5-3.1,48.7c-2.1,9-6.5,17.4-13.4,24.9
			c-12.2,13.3-28.5,19.9-48.9,19.9c-21.7,0-38-7.6-48.9-22.9c-5.4-7.6-8.8-15.6-10.1-24.1c-1.3-8.5-2-26.6-2-54.5V81.1
			c0-16.5,12.8-29.5,12.8-29.5h-62.7c0,0,14,13.7,14,30.1V220c0,71.7,30.9,107.5,92.7,107.5c30.5,0,53.2-9.5,67.7-28.5
			c7.7-10,12.9-20.9,15.5-32.6c2.5-11.7,3.9-30,3.9-54.9V76.6l0,0c0-16.5,11.7-25,11.7-25h-41C363,51.6,374.6,60.2,374.6,76.6z"/>
		<path class="st0" d="M589.6,273.3l-48.5-79.4c34-12.7,51.1-37.9,51.1-75.5c0-45.3-23.7-66.6-75-66.6h-15.7h-30h-48.2
			c0,0,12.1,9.9,15.9,17.8c1.8,3.7,3.7,12.9,3.7,29.3v192.4c0,16.4-1,26.4-3.5,29.7h42.4c-2.3-3.3-3.7-13.4-3.7-29.7v-89h28.9
			l67.6,118.6h78.3C652.9,320.9,618.5,312.2,589.6,273.3z M490.7,190.1h-12.3V63.9H502c19.7,0,33.7,4.4,41.8,13.3s12.3,24,12.3,45.4
			C556.2,167.6,534.4,190.1,490.7,190.1z"/>
		<path class="st0" d="M113.7,50.3l-11.6,0.3l-24.4,0.9h-3.9h-5H20.6c0,0,12.1,9.9,15.9,17.8c1.8,3.7,3.7,12.9,3.7,29.3v192.8
			c0,16.4-1.2,26.2-3.7,29.4h42.3c-2.3-3.3-3.4-13.1-3.4-29.4l0.3-83.1H81c35.1,0,61.3-7.3,78.8-21.8s26.2-36.2,26.2-65.2
			C185.9,74,161.9,50.3,113.7,50.3z M132.2,177.7c-10.9,12.3-27.4,18.5-49.3,18.5h-7.2v-6.2V63.9H88h6.3c19.6,0,33.5,4.5,41.8,13.4
			c8.4,9,12.6,23.9,12.6,44.9C148.6,146.8,143.1,165.3,132.2,177.7z"/>
	</g>
	<g>
		<path class="st0" d="M369.9,358h-11.8l-88,225.5c-7.5,19.1-27.9,43.9-29.7,46l38-0.1c0-4.7-0.1-31.9,5.5-46l14.4-35.8h107l14,35.8
			c4.7,11.9,17.3,46,17.3,46h50.8c-2.9-3.1-23.1-28.5-30-44.8L369.9,358z M303.7,533l48.1-122.6L399.3,533H303.7z"/>
		<path class="st0" d="M481.9,360.3V390c0-8.3,68.5-19.1,72.1-15.1c3.3,3.6,0,207.6,0,207.6c0,16.1-1.3,25.9-4,29.4
			c-2.6,3.4-31.1,17.8-31.1,17.8H624c0,0-28-14.4-30.7-17.8c-2.6-3.4-4.1-13.2-4.1-29.4c0,0-3.9-203.4,0-207.6
			c4-4.2,71.7,6.8,71.7,15.1v-29.6H481.9z"/>
		<path class="st0" d="M196.8,385.3v179.8L61.2,360.3H19.1c0,0,10.8,14.6,13.2,17.7s3.6,12.9,3.6,29.4v177.4
			c0,16.5-4.7,41.7-7.2,44.8h32.7c-2.4-3.1-9.9-28.4-9.9-44.8V407.6l150.1,222.1h8.7h3.9h0.1v-44.4l0.4-205.3
			c2.1-13,11.2-19.6,11.2-19.6h-41C185,360.3,196.8,368.9,196.8,385.3z"/>
	</g>
</g>
</svg>
