<svg width="45" height="45" viewBox="0 0 45 45" fill="none" xmlns="http://www.w3.org/2000/svg">
<path d="M22.0257 0C16.0381 0 15.2919 0.0289123 12.9486 0.12804C10.5957 0.24369 9.00413 0.608536 7.59982 1.15374C6.15144 1.72097 4.91785 2.47407 3.6994 3.6994C2.47269 4.91785 1.71271 6.15144 1.15374 7.59982C0.608536 9.00413 0.24369 10.5957 0.12804 12.9486C0.0220285 15.2933 0 16.0381 0 22.0257C0 28.0133 0.0289123 28.7595 0.12804 31.1028C0.24369 33.4488 0.608536 35.0473 1.15374 36.4516C1.72097 37.8999 2.47407 39.1335 3.6994 40.352C4.91785 41.5787 6.15144 42.3387 7.59982 42.8977C9.00413 43.436 10.6026 43.8077 12.9486 43.9234C15.2933 44.0294 16.0381 44.0514 22.0257 44.0514C28.0133 44.0514 28.7595 44.0225 31.1028 43.9234C33.4488 43.8077 35.0473 43.4346 36.4516 42.8977C37.8999 42.3304 39.1335 41.5773 40.352 40.352C41.5787 39.1335 42.3387 37.9068 42.8977 36.4516C43.436 35.0473 43.8077 33.4488 43.9234 31.1028C44.0294 28.7581 44.0514 28.0133 44.0514 22.0257C44.0514 16.0381 44.0225 15.2919 43.9234 12.9486C43.8077 10.6026 43.4346 8.99587 42.8977 7.59982C42.3304 6.15144 41.5773 4.91785 40.352 3.6994C39.1335 2.47269 37.9068 1.71271 36.4516 1.15374C35.0473 0.608536 33.4488 0.24369 31.1028 0.12804C28.7581 0.0220285 28.0133 0 22.0257 0V0ZM22.0257 3.96512C27.9059 3.96512 28.6081 3.99403 30.9321 4.09316C33.0757 4.19367 34.2432 4.55163 35.0184 4.85452C36.0523 5.25516 36.7751 5.72877 37.5571 6.50252C38.324 7.26939 38.7976 8.00046 39.1982 9.03442C39.5011 9.80954 39.8591 10.9771 39.9596 13.1207C40.0587 15.4447 40.0876 16.1482 40.0876 22.0271C40.0876 27.9059 40.0587 28.6094 39.9513 30.9335C39.8357 33.0771 39.4777 34.2446 39.1762 35.0197C38.7591 36.0537 38.2937 36.7765 37.5255 37.5585C36.7503 38.3254 36.0124 38.799 34.9867 39.1996C34.2212 39.5025 33.0372 39.8605 30.8853 39.961C28.5489 40.0601 27.8605 40.089 21.9651 40.089C16.0698 40.089 15.3827 40.0601 13.0436 39.9527C10.9 39.8371 9.7173 39.4791 8.94217 39.1776C7.89582 38.7604 7.17852 38.2951 6.41028 37.5268C5.63515 36.7517 5.14227 36.0138 4.76228 34.9881C4.45388 34.2226 4.10142 33.0385 3.98715 30.8866C3.90867 28.5778 3.8715 27.8619 3.8715 21.994C3.8715 16.129 3.90867 15.4117 3.98715 13.0739C4.10142 10.922 4.45388 9.74071 4.76228 8.97246C5.14227 7.92474 5.63653 7.20881 6.41028 6.43368C7.17714 5.66682 7.89582 5.17118 8.94217 4.78293C9.7173 4.48141 10.871 4.12345 13.0229 4.01606C15.3593 3.93208 16.0477 3.90179 21.9348 3.90179L22.0257 3.96512ZM22.0257 10.721C15.7737 10.721 10.7182 15.7834 10.7182 22.0285C10.7182 28.2804 15.7806 33.3359 22.0257 33.3359C28.2776 33.3359 33.3332 28.2735 33.3332 22.0285C33.3332 15.7765 28.2708 10.721 22.0257 10.721ZM22.0257 29.3708C17.967 29.3708 14.6833 26.0872 14.6833 22.0285C14.6833 17.9697 17.967 14.6861 22.0257 14.6861C26.0844 14.6861 29.3681 17.9697 29.3681 22.0285C29.3681 26.0872 26.0844 29.3708 22.0257 29.3708ZM36.4323 10.2694C36.4323 11.7329 35.2414 12.9142 33.7848 12.9142C32.3212 12.9142 31.14 11.7315 31.14 10.2694C31.14 8.81413 32.3295 7.6301 33.7848 7.6301C35.24 7.6301 36.4323 8.81413 36.4323 10.2694Z" fill="white"/>
</svg>
