<?xml version="1.0" encoding="utf-8"?>
<!-- Generator: Adobe Illustrator 26.2.1, SVG Export Plug-In . SVG Version: 6.00 Build 0)  -->
<svg version="1.1" id="Layer_1" xmlns="http://www.w3.org/2000/svg" xmlns:xlink="http://www.w3.org/1999/xlink" x="0px" y="0px"
	 viewBox="0 0 1269.3 359.3" style="enable-background:new 0 0 1269.3 359.3;" xml:space="preserve">
<style type="text/css">
	.st0{fill:#5C0527;}
</style>
<path class="st0" d="M-2051.6,7164.7v122.5c0,22.7-1.2,39.3-3.5,49.9c-2.3,10.6-7,20.4-14.1,29.6c-13.3,17.3-33.8,25.9-61.5,25.9
	c-56.1,0-84.2-32.5-84.2-97.6v-125.6c0-14.9-12.7-27.3-12.7-27.3h56.9c0,0-11.6,11.8-11.6,26.8v120.6c0,25.3,0.6,41.8,1.8,49.5
	c1.2,7.7,4.3,15,9.2,21.9c9.9,13.9,24.7,20.8,44.4,20.8c18.5,0,33.3-6,44.4-18.1c6.2-6.8,10.3-14.3,12.2-22.6
	c1.9-8.2,2.8-23,2.8-44.2v-131.9"/>
<path class="st0" d="M-2067.5,7204.6v-39.9c0-14.9-10.7-22.7-10.7-22.7h37.2c0,0-10.6,7.7-10.6,22.7v80.2h-3.6"/>
<path class="st0" d="M-2008.7,7386.6c2.3-2.9,3.2-12.1,3.2-27v-174.8c0-14.9-1.9-23.3-3.4-26.6c-3.3-7.1-14.4-16.2-14.4-16.2h43.8
	h27.2h14.3c46.7,0,68.1,19.4,68.1,60.5c0,34.2-15.5,57.1-46.4,68.6l44,72.1c26.3,35.3,57.5,43.2,57.5,43.2h-71.1l-61.4-107.7h-26.2
	v80.8c0,14.8,1.3,23.9,3.4,27 M-1973.4,7267.7h11.2c39.6,0,59.5-20.4,59.5-61.3c0-19.4-3.7-33.1-11.2-41.2
	c-7.4-8.1-20.1-12.1-38-12.1h-21.5V7267.7z"/>
<path class="st0" d="M-1607.5,7386.6c1.7-1.9,20.1-24.5,27-41.8l79.9-204.8h10.7l79.4,206c6.2,14.8,24.7,37.9,27.2,40.7h-46.1
	c0,0-11.4-31-15.7-41.8l-12.7-32.5h-97.2l-13.1,32.5c-5,12.8-5,37.5-5,41.8 M-1550.1,7298.8h86.8l-43.1-111.3L-1550.1,7298.8z"/>
<path class="st0" d="M-1225.5,7168.9c0-7.5-61.6-17.6-65.1-13.7c-3.5,3.8,0,188.5,0,188.5c0,14.6,1.2,23.5,3.7,26.7
	c2.4,3.1,27.9,16.2,27.9,16.2h-95.4c0,0,25.8-13.1,28.2-16.2c2.4-3.1,3.6-12,3.6-26.7c0,0,3-185.2,0-188.5
	c-3.3-3.6-65.5,6.2-65.5,13.7V7142h162.8V7168.9z"/>
<path class="st0" d="M-2339.1,7267.7V7153h11.2V7142h-17.4h-43.8c0,0,11,9,14.4,16.2c1.6,3.4,3.4,11.7,3.4,26.6v175.1
	c0,14.9-1.1,23.8-3.4,26.7h38.4c-2.1-3-3.1-11.9-3.1-26.7L-2339.1,7267.7z"/>
<g>
	<path class="st0" d="M-2340.7,7385.5h0.4c-0.2-0.2-0.3-0.4-0.4-0.7V7385.5z"/>
	<path class="st0" d="M-2304.5,7140.8l-10.5,0.3l-22.2,0.8h-3.5v11.1h18.4c17.8,0,30.4,4.1,38,12.2c7.6,8.2,11.4,21.7,11.4,40.8
		c0,22.4-5,39.1-14.9,50.4c-9.9,11.2-24.9,16.8-44.8,16.8h-8.1v11.1h6.3c31.9,0,55.7-6.6,71.6-19.8c15.9-13.2,23.8-32.9,23.8-59.2
		C-2238.9,7162.3-2260.8,7140.8-2304.5,7140.8z"/>
</g>
<path class="st0" d="M-1647.2,7346.2v-181.6c0-14.9-10.7-22.7-10.7-22.7h37.2c0,0-10.6,7.7-10.6,22.7v221.9h-3.6"/>
<path class="st0" d="M-1799.8,7386.6c2.2-2.8,6.5-25.8,6.5-40.7v-161.1c0-15-1.1-23.9-3.3-26.7s-12-16.1-12-16.1h38.3l125.6,189.8
	v-98.4l13.8-81.2l-0.5,234.5h-11.4l-136.2-201.6v160.9c0,15,6.7,37.9,9,40.7"/>
<path class="st0" d="M-4355.6,7164.7v122.5c0,22.7-1.2,39.3-3.5,49.9c-2.3,10.6-7,20.4-14.1,29.6c-13.3,17.3-33.8,25.9-61.5,25.9
	c-56.1,0-84.2-32.5-84.2-97.6v-125.6c0-14.9-12.7-27.3-12.7-27.3h56.9c0,0-11.6,11.8-11.6,26.8v120.6c0,25.3,0.6,41.8,1.8,49.5
	c1.2,7.7,4.3,15,9.2,21.9c9.9,13.9,24.7,20.8,44.4,20.8c18.5,0,33.3-6,44.4-18.1c6.2-6.8,10.3-14.3,12.2-22.6
	c1.9-8.2,2.8-23,2.8-44.2v-131.9"/>
<path class="st0" d="M-4371.5,7204.6v-39.9c0-14.9-10.7-22.7-10.7-22.7h37.2c0,0-10.6,7.7-10.6,22.7v80.2h-3.6"/>
<path class="st0" d="M-4312.7,7386.6c2.3-2.9,3.2-12.1,3.2-27v-174.8c0-14.9-1.9-23.3-3.4-26.6c-3.3-7.1-14.4-16.2-14.4-16.2h43.8
	h27.2h14.3c46.7,0,68.1,19.4,68.1,60.5c0,34.2-15.5,57.1-46.4,68.6l44,72.1c26.3,35.3,57.5,43.2,57.5,43.2h-71.1l-61.4-107.7h-26.2
	v80.8c0,14.8,1.3,23.9,3.4,27 M-4277.4,7267.7h11.2c39.6,0,59.5-20.4,59.5-61.3c0-19.4-3.7-33.1-11.2-41.2
	c-7.4-8.1-20.1-12.1-38-12.1h-21.5V7267.7z"/>
<path class="st0" d="M-3911.5,7386.6c1.7-1.9,20.1-24.5,27-41.8l79.9-204.8h10.7l79.4,206c6.2,14.8,24.7,37.9,27.2,40.7h-46.1
	c0,0-11.4-31-15.7-41.8l-12.7-32.5h-97.2l-13.1,32.5c-5,12.8-5,37.5-5,41.8 M-3854.1,7298.8h86.8l-43.1-111.3L-3854.1,7298.8z"/>
<path class="st0" d="M-3529.5,7168.9c0-7.5-61.6-17.6-65.1-13.7c-3.5,3.8,0,188.5,0,188.5c0,14.6,1.2,23.5,3.7,26.7
	c2.4,3.1,27.9,16.2,27.9,16.2h-95.4c0,0,25.8-13.1,28.2-16.2c2.4-3.1,3.6-12,3.6-26.7c0,0,3-185.2,0-188.5
	c-3.3-3.6-65.5,6.2-65.5,13.7V7142h162.8V7168.9z"/>
<path class="st0" d="M-4643.1,7267.7V7153h11.2V7142h-17.4h-43.8c0,0,11,9,14.4,16.2c1.6,3.4,3.4,11.7,3.4,26.6v175.1
	c0,14.9-1.1,23.8-3.4,26.7h38.4c-2.1-3-3.1-11.9-3.1-26.7L-4643.1,7267.7z"/>
<g>
	<path class="st0" d="M-4644.7,7385.5h0.4c-0.2-0.2-0.3-0.4-0.4-0.7V7385.5z"/>
	<path class="st0" d="M-4608.5,7140.8l-10.5,0.3l-22.2,0.8h-3.5v11.1h18.4c17.8,0,30.4,4.1,38,12.2c7.6,8.2,11.4,21.7,11.4,40.8
		c0,22.4-5,39.1-14.9,50.4c-9.9,11.2-24.9,16.8-44.8,16.8h-8.1v11.1h6.3c31.9,0,55.7-6.6,71.6-19.8c15.9-13.2,23.8-32.9,23.8-59.2
		C-4542.9,7162.3-4564.8,7140.8-4608.5,7140.8z"/>
</g>
<path class="st0" d="M-3951.2,7346.2v-181.6c0-14.9-10.7-22.7-10.7-22.7h37.2c0,0-10.6,7.7-10.6,22.7v221.9h-3.6"/>
<path class="st0" d="M-4103.8,7386.6c2.2-2.8,6.5-25.8,6.5-40.7v-161.1c0-15-1.1-23.9-3.3-26.7s-12-16.1-12-16.1h38.3l125.6,189.8
	v-98.4l13.8-81.2l-0.5,234.5h-11.4l-136.2-201.6v160.9c0,15,6.7,37.9,9,40.7"/>
<path class="st0" d="M-4355.6,4955.8v122.5c0,22.7-1.2,39.3-3.5,49.9c-2.3,10.6-7,20.4-14.1,29.6c-13.3,17.3-33.8,25.9-61.5,25.9
	c-56.1,0-84.2-32.5-84.2-97.6v-125.6c0-14.9-12.7-27.3-12.7-27.3h56.9c0,0-11.6,11.8-11.6,26.8v120.6c0,25.3,0.6,41.8,1.8,49.5
	c1.2,7.7,4.3,15,9.2,21.9c9.9,13.9,24.7,20.8,44.4,20.8c18.5,0,33.3-6,44.4-18.1c6.2-6.8,10.3-14.3,12.2-22.6
	c1.9-8.2,2.8-23,2.8-44.2v-131.9"/>
<path class="st0" d="M-4371.5,4995.7v-39.9c0-14.9-10.7-22.7-10.7-22.7h37.2c0,0-10.6,7.7-10.6,22.7v80.2h-3.6"/>
<path class="st0" d="M-4312.7,5177.7c2.3-2.9,3.2-12.1,3.2-27v-174.8c0-14.9-1.9-23.3-3.4-26.6c-3.3-7.1-14.4-16.2-14.4-16.2h43.8
	h27.2h14.3c46.7,0,68.1,19.4,68.1,60.5c0,34.2-15.5,57.1-46.4,68.6l44,72.1c26.3,35.3,57.5,43.2,57.5,43.2h-71.1l-61.4-107.7h-26.2
	v80.8c0,14.8,1.3,23.9,3.4,27 M-4277.4,5058.8h11.2c39.6,0,59.5-20.4,59.5-61.3c0-19.4-3.7-33.1-11.2-41.2
	c-7.4-8.1-20.1-12.1-38-12.1h-21.5V5058.8z"/>
<path class="st0" d="M-3911.5,5177.7c1.7-1.9,20.1-24.5,27-41.8l79.9-204.8h10.7l79.4,206c6.2,14.8,24.7,37.9,27.2,40.7h-46.1
	c0,0-11.4-31-15.7-41.8l-12.7-32.5h-97.2l-13.1,32.5c-5,12.8-5,37.5-5,41.8 M-3854.1,5089.9h86.8l-43.1-111.3L-3854.1,5089.9z"/>
<path class="st0" d="M-3529.5,4960c0-7.5-61.6-17.6-65.1-13.7c-3.5,3.8,0,188.5,0,188.5c0,14.6,1.2,23.5,3.7,26.7
	c2.4,3.1,27.9,16.2,27.9,16.2h-95.4c0,0,25.8-13.1,28.2-16.2c2.4-3.1,3.6-12,3.6-26.7c0,0,3-185.2,0-188.5
	c-3.3-3.6-65.5,6.2-65.5,13.7v-26.9h162.8V4960z"/>
<path class="st0" d="M-4643.1,5058.8v-114.6h11.2v-11.1h-17.4h-43.8c0,0,11,9,14.4,16.2c1.6,3.4,3.4,11.7,3.4,26.6V5151
	c0,14.9-1.1,23.8-3.4,26.7h38.4c-2.1-3-3.1-11.9-3.1-26.7L-4643.1,5058.8z"/>
<g>
	<path class="st0" d="M-4644.7,5176.6h0.4c-0.2-0.2-0.3-0.4-0.4-0.7V5176.6z"/>
	<path class="st0" d="M-4608.5,4931.9l-10.5,0.3l-22.2,0.8h-3.5v11.1h18.4c17.8,0,30.4,4.1,38,12.2c7.6,8.2,11.4,21.7,11.4,40.8
		c0,22.4-5,39.1-14.9,50.4c-9.9,11.2-24.9,16.8-44.8,16.8h-8.1v11.1h6.3c31.9,0,55.7-6.6,71.6-19.8c15.9-13.2,23.8-32.9,23.8-59.2
		C-4542.9,4953.4-4564.8,4931.9-4608.5,4931.9z"/>
</g>
<path class="st0" d="M-3951.2,5137.3v-181.6c0-14.9-10.7-22.7-10.7-22.7h37.2c0,0-10.6,7.7-10.6,22.7v221.9h-3.6"/>
<path class="st0" d="M-4103.8,5177.7c2.2-2.8,6.5-25.8,6.5-40.7v-161.1c0-15-1.1-23.9-3.3-26.7c-2.2-2.8-12-16.1-12-16.1h38.3
	l125.6,189.8v-98.4l13.8-81.2l-0.5,234.5h-11.4L-4083,4976v160.9c0,15,6.7,37.9,9,40.7"/>
<path class="st0" d="M-2051.6,4955.8v122.5c0,22.7-1.2,39.3-3.5,49.9c-2.3,10.6-7,20.4-14.1,29.6c-13.3,17.3-33.8,25.9-61.5,25.9
	c-56.1,0-84.2-32.5-84.2-97.6v-125.6c0-14.9-12.7-27.3-12.7-27.3h56.9c0,0-11.6,11.8-11.6,26.8v120.6c0,25.3,0.6,41.8,1.8,49.5
	c1.2,7.7,4.3,15,9.2,21.9c9.9,13.9,24.7,20.8,44.4,20.8c18.5,0,33.3-6,44.4-18.1c6.2-6.8,10.3-14.3,12.2-22.6
	c1.9-8.2,2.8-23,2.8-44.2v-131.9"/>
<path class="st0" d="M-2067.5,4995.7v-39.9c0-14.9-10.7-22.7-10.7-22.7h37.2c0,0-10.6,7.7-10.6,22.7v80.2h-3.6"/>
<path class="st0" d="M-2008.7,5177.7c2.3-2.9,3.2-12.1,3.2-27v-174.8c0-14.9-1.9-23.3-3.4-26.6c-3.3-7.1-14.4-16.2-14.4-16.2h43.8
	h27.2h14.3c46.7,0,68.1,19.4,68.1,60.5c0,34.2-15.5,57.1-46.4,68.6l44,72.1c26.3,35.3,57.5,43.2,57.5,43.2h-71.1l-61.4-107.7h-26.2
	v80.8c0,14.8,1.3,23.9,3.4,27 M-1973.4,5058.8h11.2c39.6,0,59.5-20.4,59.5-61.3c0-19.4-3.7-33.1-11.2-41.2
	c-7.4-8.1-20.1-12.1-38-12.1h-21.5V5058.8z"/>
<path class="st0" d="M-1607.5,5177.7c1.7-1.9,20.1-24.5,27-41.8l79.9-204.8h10.7l79.4,206c6.2,14.8,24.7,37.9,27.2,40.7h-46.1
	c0,0-11.4-31-15.7-41.8l-12.7-32.5h-97.2l-13.1,32.5c-5,12.8-5,37.5-5,41.8 M-1550.1,5089.9h86.8l-43.1-111.3L-1550.1,5089.9z"/>
<path class="st0" d="M-1225.5,4960c0-7.5-61.6-17.6-65.1-13.7c-3.5,3.8,0,188.5,0,188.5c0,14.6,1.2,23.5,3.7,26.7
	c2.4,3.1,27.9,16.2,27.9,16.2h-95.4c0,0,25.8-13.1,28.2-16.2c2.4-3.1,3.6-12,3.6-26.7c0,0,3-185.2,0-188.5
	c-3.3-3.6-65.5,6.2-65.5,13.7v-26.9h162.8V4960z"/>
<path class="st0" d="M-2339.1,5058.8v-114.6h11.2v-11.1h-17.4h-43.8c0,0,11,9,14.4,16.2c1.6,3.4,3.4,11.7,3.4,26.6V5151
	c0,14.9-1.1,23.8-3.4,26.7h38.4c-2.1-3-3.1-11.9-3.1-26.7L-2339.1,5058.8z"/>
<g>
	<path class="st0" d="M-2340.7,5176.6h0.4c-0.2-0.2-0.3-0.4-0.4-0.7V5176.6z"/>
	<path class="st0" d="M-2304.5,4931.9l-10.5,0.3l-22.2,0.8h-3.5v11.1h18.4c17.8,0,30.4,4.1,38,12.2c7.6,8.2,11.4,21.7,11.4,40.8
		c0,22.4-5,39.1-14.9,50.4c-9.9,11.2-24.9,16.8-44.8,16.8h-8.1v11.1h6.3c31.9,0,55.7-6.6,71.6-19.8c15.9-13.2,23.8-32.9,23.8-59.2
		C-2238.9,4953.4-2260.8,4931.9-2304.5,4931.9z"/>
</g>
<path class="st0" d="M-1647.2,5137.3v-181.6c0-14.9-10.7-22.7-10.7-22.7h37.2c0,0-10.6,7.7-10.6,22.7v221.9h-3.6"/>
<path class="st0" d="M-1799.8,5177.7c2.2-2.8,6.5-25.8,6.5-40.7v-161.1c0-15-1.1-23.9-3.3-26.7c-2.2-2.8-12-16.1-12-16.1h38.3
	l125.6,189.8v-98.4l13.8-81.2l-0.5,234.5h-11.4L-1779,4976v160.9c0,15,6.7,37.9,9,40.7"/>
<path class="st0" d="M-2051.6,7164.7v122.5c0,22.7-1.2,39.3-3.5,49.9c-2.3,10.6-7,20.4-14.1,29.6c-13.3,17.3-33.8,25.9-61.5,25.9
	c-56.1,0-84.2-32.5-84.2-97.6v-125.6c0-14.9-12.7-27.3-12.7-27.3h56.9c0,0-11.6,11.8-11.6,26.8v120.6c0,25.3,0.6,41.8,1.8,49.5
	c1.2,7.7,4.3,15,9.2,21.9c9.9,13.9,24.7,20.8,44.4,20.8c18.5,0,33.3-6,44.4-18.1c6.2-6.8,10.3-14.3,12.2-22.6
	c1.9-8.2,2.8-23,2.8-44.2v-131.9"/>
<path class="st0" d="M-2067.5,7204.6v-39.9c0-14.9-10.7-22.7-10.7-22.7h37.2c0,0-10.6,7.7-10.6,22.7v80.2h-3.6"/>
<path class="st0" d="M-2008.7,7386.6c2.3-2.9,3.2-12.1,3.2-27v-174.8c0-14.9-1.9-23.3-3.4-26.6c-3.3-7.1-14.4-16.2-14.4-16.2h43.8
	h27.2h14.3c46.7,0,68.1,19.4,68.1,60.5c0,34.2-15.5,57.1-46.4,68.6l44,72.1c26.3,35.3,57.5,43.2,57.5,43.2h-71.1l-61.4-107.7h-26.2
	v80.8c0,14.8,1.3,23.9,3.4,27 M-1973.4,7267.7h11.2c39.6,0,59.5-20.4,59.5-61.3c0-19.4-3.7-33.1-11.2-41.2
	c-7.4-8.1-20.1-12.1-38-12.1h-21.5V7267.7z"/>
<path class="st0" d="M-1607.5,7386.6c1.7-1.9,20.1-24.5,27-41.8l79.9-204.8h10.7l79.4,206c6.2,14.8,24.7,37.9,27.2,40.7h-46.1
	c0,0-11.4-31-15.7-41.8l-12.7-32.5h-97.2l-13.1,32.5c-5,12.8-5,37.5-5,41.8 M-1550.1,7298.8h86.8l-43.1-111.3L-1550.1,7298.8z"/>
<path class="st0" d="M-1225.5,7168.9c0-7.5-61.6-17.6-65.1-13.7c-3.5,3.8,0,188.5,0,188.5c0,14.6,1.2,23.5,3.7,26.7
	c2.4,3.1,27.9,16.2,27.9,16.2h-95.4c0,0,25.8-13.1,28.2-16.2c2.4-3.1,3.6-12,3.6-26.7c0,0,3-185.2,0-188.5
	c-3.3-3.6-65.5,6.2-65.5,13.7V7142h162.8V7168.9z"/>
<path class="st0" d="M-2339.1,7267.7V7153h11.2V7142h-17.4h-43.8c0,0,11,9,14.4,16.2c1.6,3.4,3.4,11.7,3.4,26.6v175.1
	c0,14.9-1.1,23.8-3.4,26.7h38.4c-2.1-3-3.1-11.9-3.1-26.7L-2339.1,7267.7z"/>
<g>
	<path class="st0" d="M-2340.7,7385.5h0.4c-0.2-0.2-0.3-0.4-0.4-0.7V7385.5z"/>
	<path class="st0" d="M-2304.5,7140.8l-10.5,0.3l-22.2,0.8h-3.5v11.1h18.4c17.8,0,30.4,4.1,38,12.2c7.6,8.2,11.4,21.7,11.4,40.8
		c0,22.4-5,39.1-14.9,50.4c-9.9,11.2-24.9,16.8-44.8,16.8h-8.1v11.1h6.3c31.9,0,55.7-6.6,71.6-19.8c15.9-13.2,23.8-32.9,23.8-59.2
		C-2238.9,7162.3-2260.8,7140.8-2304.5,7140.8z"/>
</g>
<path class="st0" d="M-1647.2,7346.2v-181.6c0-14.9-10.7-22.7-10.7-22.7h37.2c0,0-10.6,7.7-10.6,22.7v221.9h-3.6"/>
<path class="st0" d="M-1799.8,7386.6c2.2-2.8,6.5-25.8,6.5-40.7v-161.1c0-15-1.1-23.9-3.3-26.7s-12-16.1-12-16.1h38.3l125.6,189.8
	v-98.4l13.8-81.2l-0.5,234.5h-11.4l-136.2-201.6v160.9c0,15,6.7,37.9,9,40.7"/>
<path class="st0" d="M-4355.6,7164.7v122.5c0,22.7-1.2,39.3-3.5,49.9c-2.3,10.6-7,20.4-14.1,29.6c-13.3,17.3-33.8,25.9-61.5,25.9
	c-56.1,0-84.2-32.5-84.2-97.6v-125.6c0-14.9-12.7-27.3-12.7-27.3h56.9c0,0-11.6,11.8-11.6,26.8v120.6c0,25.3,0.6,41.8,1.8,49.5
	c1.2,7.7,4.3,15,9.2,21.9c9.9,13.9,24.7,20.8,44.4,20.8c18.5,0,33.3-6,44.4-18.1c6.2-6.8,10.3-14.3,12.2-22.6
	c1.9-8.2,2.8-23,2.8-44.2v-131.9"/>
<path class="st0" d="M-4371.5,7204.6v-39.9c0-14.9-10.7-22.7-10.7-22.7h37.2c0,0-10.6,7.7-10.6,22.7v80.2h-3.6"/>
<path class="st0" d="M-4312.7,7386.6c2.3-2.9,3.2-12.1,3.2-27v-174.8c0-14.9-1.9-23.3-3.4-26.6c-3.3-7.1-14.4-16.2-14.4-16.2h43.8
	h27.2h14.3c46.7,0,68.1,19.4,68.1,60.5c0,34.2-15.5,57.1-46.4,68.6l44,72.1c26.3,35.3,57.5,43.2,57.5,43.2h-71.1l-61.4-107.7h-26.2
	v80.8c0,14.8,1.3,23.9,3.4,27 M-4277.4,7267.7h11.2c39.6,0,59.5-20.4,59.5-61.3c0-19.4-3.7-33.1-11.2-41.2
	c-7.4-8.1-20.1-12.1-38-12.1h-21.5V7267.7z"/>
<path class="st0" d="M-3911.5,7386.6c1.7-1.9,20.1-24.5,27-41.8l79.9-204.8h10.7l79.4,206c6.2,14.8,24.7,37.9,27.2,40.7h-46.1
	c0,0-11.4-31-15.7-41.8l-12.7-32.5h-97.2l-13.1,32.5c-5,12.8-5,37.5-5,41.8 M-3854.1,7298.8h86.8l-43.1-111.3L-3854.1,7298.8z"/>
<path class="st0" d="M-3529.5,7168.9c0-7.5-61.6-17.6-65.1-13.7c-3.5,3.8,0,188.5,0,188.5c0,14.6,1.2,23.5,3.7,26.7
	c2.4,3.1,27.9,16.2,27.9,16.2h-95.4c0,0,25.8-13.1,28.2-16.2c2.4-3.1,3.6-12,3.6-26.7c0,0,3-185.2,0-188.5
	c-3.3-3.6-65.5,6.2-65.5,13.7V7142h162.8V7168.9z"/>
<path class="st0" d="M-4643.1,7267.7V7153h11.2V7142h-17.4h-43.8c0,0,11,9,14.4,16.2c1.6,3.4,3.4,11.7,3.4,26.6v175.1
	c0,14.9-1.1,23.8-3.4,26.7h38.4c-2.1-3-3.1-11.9-3.1-26.7L-4643.1,7267.7z"/>
<g>
	<path class="st0" d="M-4644.7,7385.5h0.4c-0.2-0.2-0.3-0.4-0.4-0.7V7385.5z"/>
	<path class="st0" d="M-4608.5,7140.8l-10.5,0.3l-22.2,0.8h-3.5v11.1h18.4c17.8,0,30.4,4.1,38,12.2c7.6,8.2,11.4,21.7,11.4,40.8
		c0,22.4-5,39.1-14.9,50.4c-9.9,11.2-24.9,16.8-44.8,16.8h-8.1v11.1h6.3c31.9,0,55.7-6.6,71.6-19.8c15.9-13.2,23.8-32.9,23.8-59.2
		C-4542.9,7162.3-4564.8,7140.8-4608.5,7140.8z"/>
</g>
<path class="st0" d="M-3951.2,7346.2v-181.6c0-14.9-10.7-22.7-10.7-22.7h37.2c0,0-10.6,7.7-10.6,22.7v221.9h-3.6"/>
<path class="st0" d="M-4103.8,7386.6c2.2-2.8,6.5-25.8,6.5-40.7v-161.1c0-15-1.1-23.9-3.3-26.7s-12-16.1-12-16.1h38.3l125.6,189.8
	v-98.4l13.8-81.2l-0.5,234.5h-11.4l-136.2-201.6v160.9c0,15,6.7,37.9,9,40.7"/>
<path class="st0" d="M-4355.6,4955.8v122.5c0,22.7-1.2,39.3-3.5,49.9c-2.3,10.6-7,20.4-14.1,29.6c-13.3,17.3-33.8,25.9-61.5,25.9
	c-56.1,0-84.2-32.5-84.2-97.6v-125.6c0-14.9-12.7-27.3-12.7-27.3h56.9c0,0-11.6,11.8-11.6,26.8v120.6c0,25.3,0.6,41.8,1.8,49.5
	c1.2,7.7,4.3,15,9.2,21.9c9.9,13.9,24.7,20.8,44.4,20.8c18.5,0,33.3-6,44.4-18.1c6.2-6.8,10.3-14.3,12.2-22.6
	c1.9-8.2,2.8-23,2.8-44.2v-131.9"/>
<path class="st0" d="M-4371.5,4995.7v-39.9c0-14.9-10.7-22.7-10.7-22.7h37.2c0,0-10.6,7.7-10.6,22.7v80.2h-3.6"/>
<path class="st0" d="M-4312.7,5177.7c2.3-2.9,3.2-12.1,3.2-27v-174.8c0-14.9-1.9-23.3-3.4-26.6c-3.3-7.1-14.4-16.2-14.4-16.2h43.8
	h27.2h14.3c46.7,0,68.1,19.4,68.1,60.5c0,34.2-15.5,57.1-46.4,68.6l44,72.1c26.3,35.3,57.5,43.2,57.5,43.2h-71.1l-61.4-107.7h-26.2
	v80.8c0,14.8,1.3,23.9,3.4,27 M-4277.4,5058.8h11.2c39.6,0,59.5-20.4,59.5-61.3c0-19.4-3.7-33.1-11.2-41.2
	c-7.4-8.1-20.1-12.1-38-12.1h-21.5V5058.8z"/>
<path class="st0" d="M-3911.5,5177.7c1.7-1.9,20.1-24.5,27-41.8l79.9-204.8h10.7l79.4,206c6.2,14.8,24.7,37.9,27.2,40.7h-46.1
	c0,0-11.4-31-15.7-41.8l-12.7-32.5h-97.2l-13.1,32.5c-5,12.8-5,37.5-5,41.8 M-3854.1,5089.9h86.8l-43.1-111.3L-3854.1,5089.9z"/>
<path class="st0" d="M-3529.5,4960c0-7.5-61.6-17.6-65.1-13.7c-3.5,3.8,0,188.5,0,188.5c0,14.6,1.2,23.5,3.7,26.7
	c2.4,3.1,27.9,16.2,27.9,16.2h-95.4c0,0,25.8-13.1,28.2-16.2c2.4-3.1,3.6-12,3.6-26.7c0,0,3-185.2,0-188.5
	c-3.3-3.6-65.5,6.2-65.5,13.7v-26.9h162.8V4960z"/>
<path class="st0" d="M-4643.1,5058.8v-114.6h11.2v-11.1h-17.4h-43.8c0,0,11,9,14.4,16.2c1.6,3.4,3.4,11.7,3.4,26.6V5151
	c0,14.9-1.1,23.8-3.4,26.7h38.4c-2.1-3-3.1-11.9-3.1-26.7L-4643.1,5058.8z"/>
<g>
	<path class="st0" d="M-4644.7,5176.6h0.4c-0.2-0.2-0.3-0.4-0.4-0.7V5176.6z"/>
	<path class="st0" d="M-4608.5,4931.9l-10.5,0.3l-22.2,0.8h-3.5v11.1h18.4c17.8,0,30.4,4.1,38,12.2c7.6,8.2,11.4,21.7,11.4,40.8
		c0,22.4-5,39.1-14.9,50.4c-9.9,11.2-24.9,16.8-44.8,16.8h-8.1v11.1h6.3c31.9,0,55.7-6.6,71.6-19.8c15.9-13.2,23.8-32.9,23.8-59.2
		C-4542.9,4953.4-4564.8,4931.9-4608.5,4931.9z"/>
</g>
<path class="st0" d="M-3951.2,5137.3v-181.6c0-14.9-10.7-22.7-10.7-22.7h37.2c0,0-10.6,7.7-10.6,22.7v221.9h-3.6"/>
<path class="st0" d="M-4103.8,5177.7c2.2-2.8,6.5-25.8,6.5-40.7v-161.1c0-15-1.1-23.9-3.3-26.7c-2.2-2.8-12-16.1-12-16.1h38.3
	l125.6,189.8v-98.4l13.8-81.2l-0.5,234.5h-11.4L-4083,4976v160.9c0,15,6.7,37.9,9,40.7"/>
<path class="st0" d="M-2051.6,4955.8v122.5c0,22.7-1.2,39.3-3.5,49.9c-2.3,10.6-7,20.4-14.1,29.6c-13.3,17.3-33.8,25.9-61.5,25.9
	c-56.1,0-84.2-32.5-84.2-97.6v-125.6c0-14.9-12.7-27.3-12.7-27.3h56.9c0,0-11.6,11.8-11.6,26.8v120.6c0,25.3,0.6,41.8,1.8,49.5
	c1.2,7.7,4.3,15,9.2,21.9c9.9,13.9,24.7,20.8,44.4,20.8c18.5,0,33.3-6,44.4-18.1c6.2-6.8,10.3-14.3,12.2-22.6
	c1.9-8.2,2.8-23,2.8-44.2v-131.9"/>
<path class="st0" d="M-2067.5,4995.7v-39.9c0-14.9-10.7-22.7-10.7-22.7h37.2c0,0-10.6,7.7-10.6,22.7v80.2h-3.6"/>
<path class="st0" d="M-2008.7,5177.7c2.3-2.9,3.2-12.1,3.2-27v-174.8c0-14.9-1.9-23.3-3.4-26.6c-3.3-7.1-14.4-16.2-14.4-16.2h43.8
	h27.2h14.3c46.7,0,68.1,19.4,68.1,60.5c0,34.2-15.5,57.1-46.4,68.6l44,72.1c26.3,35.3,57.5,43.2,57.5,43.2h-71.1l-61.4-107.7h-26.2
	v80.8c0,14.8,1.3,23.9,3.4,27 M-1973.4,5058.8h11.2c39.6,0,59.5-20.4,59.5-61.3c0-19.4-3.7-33.1-11.2-41.2
	c-7.4-8.1-20.1-12.1-38-12.1h-21.5V5058.8z"/>
<path class="st0" d="M-1607.5,5177.7c1.7-1.9,20.1-24.5,27-41.8l79.9-204.8h10.7l79.4,206c6.2,14.8,24.7,37.9,27.2,40.7h-46.1
	c0,0-11.4-31-15.7-41.8l-12.7-32.5h-97.2l-13.1,32.5c-5,12.8-5,37.5-5,41.8 M-1550.1,5089.9h86.8l-43.1-111.3L-1550.1,5089.9z"/>
<path class="st0" d="M-1225.5,4960c0-7.5-61.6-17.6-65.1-13.7c-3.5,3.8,0,188.5,0,188.5c0,14.6,1.2,23.5,3.7,26.7
	c2.4,3.1,27.9,16.2,27.9,16.2h-95.4c0,0,25.8-13.1,28.2-16.2c2.4-3.1,3.6-12,3.6-26.7c0,0,3-185.2,0-188.5
	c-3.3-3.6-65.5,6.2-65.5,13.7v-26.9h162.8V4960z"/>
<path class="st0" d="M-2339.1,5058.8v-114.6h11.2v-11.1h-17.4h-43.8c0,0,11,9,14.4,16.2c1.6,3.4,3.4,11.7,3.4,26.6V5151
	c0,14.9-1.1,23.8-3.4,26.7h38.4c-2.1-3-3.1-11.9-3.1-26.7L-2339.1,5058.8z"/>
<g>
	<path class="st0" d="M-2340.7,5176.6h0.4c-0.2-0.2-0.3-0.4-0.4-0.7V5176.6z"/>
	<path class="st0" d="M-2304.5,4931.9l-10.5,0.3l-22.2,0.8h-3.5v11.1h18.4c17.8,0,30.4,4.1,38,12.2c7.6,8.2,11.4,21.7,11.4,40.8
		c0,22.4-5,39.1-14.9,50.4c-9.9,11.2-24.9,16.8-44.8,16.8h-8.1v11.1h6.3c31.9,0,55.7-6.6,71.6-19.8c15.9-13.2,23.8-32.9,23.8-59.2
		C-2238.9,4953.4-2260.8,4931.9-2304.5,4931.9z"/>
</g>
<path class="st0" d="M-1647.2,5137.3v-181.6c0-14.9-10.7-22.7-10.7-22.7h37.2c0,0-10.6,7.7-10.6,22.7v221.9h-3.6"/>
<path class="st0" d="M-1799.8,5177.7c2.2-2.8,6.5-25.8,6.5-40.7v-161.1c0-15-1.1-23.9-3.3-26.7c-2.2-2.8-12-16.1-12-16.1h38.3
	l125.6,189.8v-98.4l13.8-81.2l-0.5,234.5h-11.4L-1779,4976v160.9c0,15,6.7,37.9,9,40.7"/>
<g>
	<path class="st0" d="M374.7,78.1V118l0,0v92c0,21.2-0.9,35.9-2.8,44.2c-1.9,8.2-5.9,15.8-12.2,22.6c-11.1,12.1-25.9,18.1-44.4,18.1
		c-19.7,0-34.5-6.9-44.4-20.8c-4.9-6.9-8-14.2-9.2-21.9c-1.2-7.7-1.8-24.2-1.8-49.5V82.2c0-15,11.6-26.8,11.6-26.8h-56.9
		c0,0,12.7,12.4,12.7,27.3v125.6c0,65.1,28.1,97.6,84.2,97.6c27.7,0,48.3-8.6,61.5-25.9c7-9.1,11.7-19,14.1-29.6
		c2.3-10.6,3.5-27.2,3.5-49.9V78.1h0c0-15,10.6-22.7,10.6-22.7h-37.2C364.1,55.4,374.7,63.2,374.7,78.1z"/>
	<path class="st0" d="M569.9,256.7l-44-72.1c30.9-11.5,46.4-34.4,46.4-68.6c0-41.1-21.5-60.5-68.1-60.5h-14.3h-27.2h-43.8
		c0,0,11,9,14.4,16.2c1.6,3.4,3.4,11.7,3.4,26.6V273c0,14.9-0.9,24-3.2,27H472c-2.1-3-3.4-12.2-3.4-27v-80.8h26.2l61.4,107.7h71.1
		C627.4,299.9,596.2,292,569.9,256.7z M480.1,181.1h-11.2V66.5h21.5c17.9,0,30.6,4,38,12.1c7.4,8.1,11.2,21.8,11.2,41.2
		C539.6,160.7,519.8,181.1,480.1,181.1z"/>
	<path class="st0" d="M952.3,53.3h-10.7l-79.9,204.8c-6.8,17.3-25.3,39.9-27,41.8l34.5-0.1c0-4.3-0.1-29,5-41.8l13.1-32.5h97.2
		l12.7,32.5c4.3,10.8,15.7,41.8,15.7,41.8h46.1c-2.6-2.8-21-25.9-27.2-40.7L952.3,53.3z M892.2,212.2l43.7-111.3L979,212.2H892.2z"
		/>
	<path class="st0" d="M1054,55.4v26.9c0-7.5,62.2-17.3,65.5-13.7c3,3.3,0,188.5,0,188.5c0,14.6-1.2,23.5-3.6,26.7
		c-2.4,3.1-28.2,16.2-28.2,16.2h95.4c0,0-25.4-13.1-27.9-16.2c-2.4-3.1-3.7-12-3.7-26.7c0,0-3.5-184.7,0-188.5
		c3.6-3.8,65.1,6.2,65.1,13.7V55.4H1054z"/>
	<path class="st0" d="M137.7,54.2l-10.5,0.3l-22.2,0.8h-3.5H97H53.2c0,0,11,9,14.4,16.2c1.6,3.4,3.4,11.7,3.4,26.6v175.1
		c0,14.9-1.1,23.8-3.4,26.7H106c-2.1-3-3.1-11.9-3.1-26.7l0.3-75.5h4.8c31.9,0,55.7-6.6,71.6-19.8c15.9-13.2,23.8-32.9,23.8-59.2
		C203.3,75.7,181.5,54.2,137.7,54.2z M154.5,169.9c-9.9,11.2-24.9,16.8-44.8,16.8h-6.5l0-5.6V66.5h11.2h5.7c17.8,0,30.4,4.1,38,12.2
		c7.6,8.2,11.4,21.7,11.4,40.8C169.4,141.8,164.4,158.6,154.5,169.9z"/>
	<path class="st0" d="M795.1,78.1v163.3L672,55.4h-38.3c0,0,9.8,13.3,12,16.1c2.2,2.8,3.3,11.7,3.3,26.7v161.1
		c0,15-4.3,37.9-6.5,40.7h29.7c-2.2-2.8-9-25.8-9-40.7V98.3L799.5,300h7.9h3.5h0.1v-40.3l0.4-186.4c1.9-11.8,10.2-17.8,10.2-17.8
		h-37.2C784.4,55.4,795.1,63.2,795.1,78.1z"/>
</g>
</svg>
