<?xml version="1.0" encoding="utf-8"?>
<!-- Generator: Adobe Illustrator 26.2.1, SVG Export Plug-In . SVG Version: 6.00 Build 0)  -->
<svg version="1.1" xmlns="http://www.w3.org/2000/svg" xmlns:xlink="http://www.w3.org/1999/xlink" x="0px" y="0px"
	 viewBox="0 0 145.1 139.4" style="enable-background:new 0 0 145.1 139.4;" xml:space="preserve">
<style type="text/css">
	.st0{fill:#AA6829;}
</style>
<g id="Background">
</g>
<g id="Graphic_Elements">
	<g>
		<path class="st0" d="M99.5,67.2c-18.3-9.6-31.7-29.1-35.5-52.7c-3.8,23.6-17.1,43.2-35.5,52.7c-3.6,1.9-12.4,4.7-12.4,4.7
			s8.9,2.9,12.4,4.7c18.3,9.6,31.7,29.1,35.5,52.7c3.8-23.6,17.1-43.2,35.5-52.7c3.6-1.9,12.4-4.7,12.4-4.7S103.1,69.1,99.5,67.2z"
			/>
		<path class="st0" d="M123.1,31c-5.7-3-9.9-9.1-11.1-16.5c-1.2,7.4-5.4,13.5-11.1,16.5c-1.1,0.6-3.9,1.5-3.9,1.5s2.8,0.9,3.9,1.5
			c5.7,3,9.9,9.1,11.1,16.5c1.2-7.4,5.4-13.5,11.1-16.5c1.1-0.6,3.9-1.5,3.9-1.5S124.2,31.6,123.1,31z"/>
	</g>
</g>
</svg>
