<svg width="64" height="66" viewBox="0 0 64 66" fill="none" xmlns="http://www.w3.org/2000/svg">
<path d="M15.8126 30.2412C26.3352 24.7323 34.0403 13.5425 36.2253 0C38.4103 13.5425 46.0579 24.7897 56.638 30.2412C58.708 31.3314 63.7681 32.9382 63.7681 32.9382C63.7681 32.9382 58.6505 34.6023 56.638 35.6352C46.1154 41.144 38.4103 52.3338 36.2253 65.8764C34.0403 52.3338 26.3927 41.0867 15.8126 35.6352C13.7426 34.5449 8.68254 32.9382 8.68254 32.9382C8.68254 32.9382 13.7426 31.3314 15.8126 30.2412Z" fill="white"/>
<path d="M2.24248 9.46829C5.52001 7.74679 7.93504 4.24639 8.62504 0C9.31505 4.24639 11.7301 7.74679 15.0076 9.46829C15.6401 9.8126 17.2501 10.329 17.2501 10.329C17.2501 10.329 15.6401 10.8455 15.0076 11.1898C11.7301 12.9113 9.31505 16.4117 8.62504 20.6581C7.93504 16.4117 5.52001 12.9113 2.24248 11.1898C1.60998 10.8455 -3.8147e-05 10.329 -3.8147e-05 10.329C-3.8147e-05 10.329 1.60998 9.8126 2.24248 9.46829Z" fill="white"/>
</svg>
