<svg width="116" height="119" viewBox="0 0 116 119" fill="none" xmlns="http://www.w3.org/2000/svg">
<path d="M86.8601 54.9354C67.9421 45.0875 54.0896 25.0839 50.1612 0.874451C46.2329 25.0839 32.4838 45.1901 13.4624 54.9354C9.74085 56.8845 0.643677 59.7568 0.643677 59.7568C0.643677 59.7568 9.84423 62.7317 13.4624 64.5782C32.3804 74.4261 46.2329 94.4297 50.1612 118.639C54.0896 94.4297 67.8387 74.3235 86.8601 64.5782C90.5816 62.6291 99.6788 59.7568 99.6788 59.7568C99.6788 59.7568 90.5816 56.8845 86.8601 54.9354Z" fill="white"/>
<path d="M111.257 17.8006C105.365 14.7231 101.023 8.46556 99.7822 0.874451C98.5417 8.46556 94.1998 14.7231 88.3073 17.8006C87.1702 18.4161 84.2756 19.3393 84.2756 19.3393C84.2756 19.3393 87.1702 20.2625 88.3073 20.878C94.1998 23.9555 98.5417 30.213 99.7822 37.8042C101.023 30.213 105.365 23.9555 111.257 20.878C112.394 20.2625 115.289 19.3393 115.289 19.3393C115.289 19.3393 112.394 18.4161 111.257 17.8006Z" fill="white"/>
</svg>
