<svg width="43" height="43" viewBox="0 0 43 43" fill="none" xmlns="http://www.w3.org/2000/svg">
<path d="M31.347 25.7691C30.8082 25.4963 28.1838 24.2157 27.6933 24.033C27.2029 23.8583 26.8468 23.7669 26.4893 24.3057C26.14 24.8312 25.1107 26.0338 24.7962 26.3845C24.4818 26.7353 24.1727 26.7621 23.6419 26.5243C23.1031 26.2515 21.3818 25.6912 19.3379 23.8583C17.7415 22.4379 16.6786 20.6884 16.3628 20.1495C16.0484 19.6174 16.3279 19.3164 16.594 19.0503C16.8385 18.8058 17.1328 18.4349 17.4056 18.1124C17.6649 17.7899 17.7482 17.5736 17.9377 17.2242C18.1124 16.8466 18.0224 16.5523 17.8893 16.2862C17.7563 16.0202 16.6853 13.3824 16.2379 12.3316C15.8106 11.2888 15.3631 11.4219 15.0339 11.4219C14.7262 11.3937 14.3687 11.3937 14.0126 11.3937C13.6565 11.3937 13.0747 11.5267 12.5842 12.0373C12.0938 12.5762 10.7083 13.8635 10.7083 16.4677C10.7083 19.0786 12.6259 21.6048 12.8919 21.9824C13.1647 22.3318 16.6638 27.7068 22.0321 30.0167C23.3127 30.5555 24.3071 30.878 25.0838 31.1441C26.3644 31.5499 27.5334 31.4935 28.4566 31.3604C29.4778 31.1925 31.6198 30.0651 32.0686 28.806C32.5241 27.5388 32.5241 26.4893 32.3911 26.2515C32.2581 26.0069 31.9087 25.8739 31.3698 25.6361L31.347 25.7691ZM21.6115 38.9688H21.5833C18.4053 38.9688 15.2637 38.1074 12.5197 36.4976L11.8761 36.1133L5.15731 37.8628L6.96331 31.3255L6.52928 30.6536C4.75822 27.8331 3.81356 24.5785 3.81356 21.2339C3.81356 11.4783 11.7995 3.52062 21.625 3.52062C26.3845 3.52062 30.8498 5.375 34.2092 8.73438C37.5686 12.0655 39.4229 16.5308 39.4229 21.2622C39.4095 31.0111 31.4303 38.9688 21.6182 38.9688H21.6115ZM36.7637 6.17991C32.676 2.23197 27.301 0 21.5833 0C9.79056 0 0.188125 9.56078 0.181406 21.3105C0.181406 25.0623 1.161 28.7227 3.03688 31.9624L0 43L11.352 40.0397C14.4803 41.7261 18.0009 42.6291 21.5847 42.6358H21.5914C33.3908 42.6358 42.9933 33.0751 43 21.3173C43 15.6278 40.7815 10.273 36.7368 6.24844L36.7637 6.17991Z" fill="white"/>
</svg>
