<svg width="49" height="37" viewBox="0 0 49 37" fill="none" xmlns="http://www.w3.org/2000/svg">
<path d="M28.2325 17.5772C27.7049 15.4232 25.6809 14.1449 23.7119 14.722C21.7429 15.2992 20.5743 17.5133 21.1019 19.6673C21.6295 21.8214 23.6535 23.0997 25.6225 22.5225C27.5916 21.9454 28.7601 19.7313 28.2325 17.5772Z" fill="white"/>
<path d="M12.4786 18.6223C12.4785 22.0737 13.7018 25.3907 15.8913 27.8758C16.3407 28.385 16.9565 28.6781 17.6034 28.6906C18.2503 28.7031 18.8752 28.434 19.3407 27.9425C19.8062 27.4509 20.0741 26.7772 20.0855 26.0696C20.097 25.3619 19.851 24.6783 19.4016 24.169C18.134 22.6546 17.4309 20.6757 17.4309 18.6223C17.4309 16.5688 18.134 14.5899 19.4016 13.0755C19.851 12.5662 20.097 11.8826 20.0855 11.175C20.0741 10.4673 19.8062 9.7936 19.3407 9.30205C18.8752 8.81051 18.2503 8.54138 17.6034 8.55389C16.9565 8.56639 16.3407 8.85949 15.8913 9.36872C13.7018 11.8538 12.4785 15.1708 12.4786 18.6223V18.6223Z" fill="white"/>
<path d="M0.290135 18.6222C0.292071 21.843 0.886597 25.0305 2.03829 27.9947C3.18998 30.9589 4.87528 33.6392 6.99379 35.8759C7.22908 36.1193 7.50589 36.3096 7.80841 36.436C8.11093 36.5623 8.43324 36.6223 8.75694 36.6123C9.08063 36.6024 9.39937 36.5229 9.69496 36.3782C9.99056 36.2336 10.2572 36.0266 10.4797 35.7692C10.929 35.2494 11.1712 34.5556 11.1529 33.8404C11.1438 33.4863 11.0711 33.1376 10.9389 32.8143C10.8066 32.4909 10.6175 32.1992 10.3822 31.9558C8.73071 30.2145 7.4171 28.1268 6.51987 25.8175C5.62264 23.5082 5.1602 21.0247 5.1602 18.5155C5.1602 16.0063 5.62264 13.5228 6.51987 11.2136C7.4171 8.90427 8.73071 6.81657 10.3822 5.07524C10.6125 4.82826 10.7958 4.53374 10.9213 4.20873C11.0468 3.88372 11.1122 3.53469 11.1135 3.18186C11.1117 2.66073 10.9703 2.15159 10.7069 1.71738C10.4435 1.28317 10.0695 0.942911 9.63126 0.738652C9.193 0.534393 8.70963 0.475086 8.24089 0.568066C7.77216 0.661045 7.3386 0.902232 6.99379 1.26182C4.86344 3.51098 3.17127 6.20856 2.01919 9.1921C0.867101 12.1756 0.278943 15.3834 0.290135 18.6222V18.6222Z" fill="white"/>
<path d="M36.4471 18.6223C36.4472 22.0737 35.2238 25.3908 33.0343 27.8758C32.585 28.385 31.9691 28.6782 31.3223 28.6907C30.6754 28.7032 30.0505 28.434 29.585 27.9425C29.1195 27.4509 28.8516 26.7772 28.8401 26.0696C28.8287 25.3619 29.0747 24.6783 29.524 24.1691C30.7917 22.6546 31.4948 20.6757 31.4948 18.6223C31.4948 16.5689 30.7917 14.5899 29.524 13.0755C29.0747 12.5663 28.8287 11.8826 28.8401 11.175C28.8516 10.4673 29.1195 9.79363 29.585 9.30208C30.0505 8.81054 30.6754 8.54141 31.3223 8.55392C31.9691 8.56642 32.585 8.85953 33.0343 9.36875C35.2238 11.8538 36.4472 15.1708 36.4471 18.6223V18.6223Z" fill="white"/>
<path d="M48.6356 18.6222C48.6336 21.843 48.0391 25.0305 46.8874 27.9947C45.7357 30.9589 44.0504 33.6392 41.9319 35.8759C41.6966 36.1193 41.4198 36.3096 41.1173 36.436C40.8148 36.5623 40.4925 36.6223 40.1688 36.6123C39.8451 36.6024 39.5263 36.5229 39.2308 36.3782C38.9352 36.2336 38.6685 36.0266 38.446 35.7692C37.9967 35.2494 37.7545 34.5556 37.7728 33.8404C37.7819 33.4863 37.8546 33.1376 37.9868 32.8143C38.1191 32.4909 38.3082 32.1992 38.5435 31.9558C40.195 30.2145 41.5086 28.1268 42.4059 25.8175C43.3031 23.5082 43.7655 21.0247 43.7655 18.5155C43.7655 16.0063 43.3031 13.5228 42.4059 11.2136C41.5086 8.90427 40.195 6.81657 38.5435 5.07524C38.3132 4.82826 38.13 4.53374 38.0044 4.20873C37.8789 3.88372 37.8136 3.53469 37.8122 3.18186C37.814 2.66073 37.9554 2.15159 38.2188 1.71738C38.4822 1.28317 38.8562 0.942911 39.2945 0.738652C39.7327 0.534393 40.2161 0.475086 40.6848 0.568066C41.1536 0.661045 41.5871 0.902232 41.9319 1.26182C44.0623 3.51098 45.7545 6.20856 46.9065 9.1921C48.0586 12.1756 48.6468 15.3834 48.6356 18.6222V18.6222Z" fill="white"/>
</svg>
